<?xml version="1.0" encoding="utf-8" standalone="no"?>
<!DOCTYPE svg PUBLIC "-//W3C//DTD SVG 1.1//EN"
  "http://www.w3.org/Graphics/SVG/1.1/DTD/svg11.dtd">
<!-- Created with matplotlib (http://matplotlib.org/) -->
<svg height="268pt" version="1.1" viewBox="0 0 379 268" width="379pt" xmlns="http://www.w3.org/2000/svg" xmlns:xlink="http://www.w3.org/1999/xlink">
 <defs>
  <style type="text/css">
*{stroke-linecap:butt;stroke-linejoin:round;}
  </style>
 </defs>
 <g id="figure_1">
  <g id="patch_1">
   <path d="M 0 268.899063 
L 379.5 268.899063 
L 379.5 0 
L 0 0 
z
" style="fill:#ffffff;"/>
  </g>
  <g id="axes_1">
   <g id="patch_2">
    <path d="M 34 232.46 
L 368.8 232.46 
L 368.8 10.7 
L 34 10.7 
z
" style="fill:#ffffff;"/>
   </g>
   <g id="patch_3">
    <path clip-path="url(#pb3aff0601c)" d="M 49.218182 76041.340106 
L 52.292562 76041.340106 
L 52.292562 20.78 
L 49.218182 20.78 
z
" style="fill:#008fd5;opacity:0.6;"/>
   </g>
   <g id="patch_4">
    <path clip-path="url(#pb3aff0601c)" d="M 52.292562 76041.340106 
L 55.366942 76041.340106 
L 55.366942 44.35027 
L 52.292562 44.35027 
z
" style="fill:#008fd5;opacity:0.6;"/>
   </g>
   <g id="patch_5">
    <path clip-path="url(#pb3aff0601c)" d="M 55.366942 76041.340106 
L 58.441322 76041.340106 
L 58.441322 75.615577 
L 55.366942 75.615577 
z
" style="fill:#008fd5;opacity:0.6;"/>
   </g>
   <g id="patch_6">
    <path clip-path="url(#pb3aff0601c)" d="M 58.441322 76041.340106 
L 61.515702 76041.340106 
L 61.515702 83.476617 
L 58.441322 83.476617 
z
" style="fill:#008fd5;opacity:0.6;"/>
   </g>
   <g id="patch_7">
    <path clip-path="url(#pb3aff0601c)" d="M 61.515702 76041.340106 
L 64.590083 76041.340106 
L 64.590083 104.927925 
L 61.515702 104.927925 
z
" style="fill:#008fd5;opacity:0.6;"/>
   </g>
   <g id="patch_8">
    <path clip-path="url(#pb3aff0601c)" d="M 64.590083 76041.340106 
L 67.664463 76041.340106 
L 67.664463 114.747725 
L 64.590083 114.747725 
z
" style="fill:#008fd5;opacity:0.6;"/>
   </g>
   <g id="patch_9">
    <path clip-path="url(#pb3aff0601c)" d="M 67.664463 76041.340106 
L 70.738843 76041.340106 
L 70.738843 126.895633 
L 67.664463 126.895633 
z
" style="fill:#008fd5;opacity:0.6;"/>
   </g>
   <g id="patch_10">
    <path clip-path="url(#pb3aff0601c)" d="M 70.738843 76041.340106 
L 73.813223 76041.340106 
L 73.813223 135.197886 
L 70.738843 135.197886 
z
" style="fill:#008fd5;opacity:0.6;"/>
   </g>
   <g id="patch_11">
    <path clip-path="url(#pb3aff0601c)" d="M 73.813223 76041.340106 
L 76.887603 76041.340106 
L 76.887603 149.793974 
L 73.813223 149.793974 
z
" style="fill:#008fd5;opacity:0.6;"/>
   </g>
   <g id="patch_12">
    <path clip-path="url(#pb3aff0601c)" d="M 76.887603 76041.340106 
L 79.961983 76041.340106 
L 79.961983 169.211697 
L 76.887603 169.211697 
z
" style="fill:#008fd5;opacity:0.6;"/>
   </g>
   <g id="patch_13">
    <path clip-path="url(#pb3aff0601c)" d="M 79.961983 76041.340106 
L 83.036364 76041.340106 
L 83.036364 153.684975 
L 79.961983 153.684975 
z
" style="fill:#008fd5;opacity:0.6;"/>
   </g>
   <g id="patch_14">
    <path clip-path="url(#pb3aff0601c)" d="M 83.036364 76041.340106 
L 86.110744 76041.340106 
L 86.110744 169.211697 
L 83.036364 169.211697 
z
" style="fill:#008fd5;opacity:0.6;"/>
   </g>
   <g id="patch_15">
    <path clip-path="url(#pb3aff0601c)" d="M 86.110744 76041.340106 
L 89.185124 76041.340106 
L 89.185124 176.583317 
L 86.110744 176.583317 
z
" style="fill:#008fd5;opacity:0.6;"/>
   </g>
   <g id="patch_16">
    <path clip-path="url(#pb3aff0601c)" d="M 89.185124 76041.340106 
L 92.259504 76041.340106 
L 92.259504 158.096228 
L 89.185124 158.096228 
z
" style="fill:#008fd5;opacity:0.6;"/>
   </g>
   <g id="patch_17">
    <path clip-path="url(#pb3aff0601c)" d="M 92.259504 76041.340106 
L 95.333884 76041.340106 
L 95.333884 158.096228 
L 92.259504 158.096228 
z
" style="fill:#008fd5;opacity:0.6;"/>
   </g>
   <g id="patch_18">
    <path clip-path="url(#pb3aff0601c)" d="M 95.333884 76041.340106 
L 98.408264 76041.340106 
L 98.408264 222.38 
L 95.333884 222.38 
z
" style="fill:#008fd5;opacity:0.6;"/>
   </g>
   <g id="patch_19">
    <path clip-path="url(#pb3aff0601c)" d="M 98.408264 76041.340106 
L 101.482645 76041.340106 
L 101.482645 199.481658 
L 98.408264 199.481658 
z
" style="fill:#008fd5;opacity:0.6;"/>
   </g>
   <g id="patch_20">
    <path clip-path="url(#pb3aff0601c)" d="M 101.482645 76041.340106 
L 104.557025 76041.340106 
L 104.557025 222.38 
L 101.482645 222.38 
z
" style="fill:#008fd5;opacity:0.6;"/>
   </g>
   <g id="patch_21">
    <path clip-path="url(#pb3aff0601c)" d="M 104.557025 76041.340106 
L 107.631405 76041.340106 
L 107.631405 199.481658 
L 104.557025 199.481658 
z
" style="fill:#008fd5;opacity:0.6;"/>
   </g>
   <g id="patch_22">
    <path clip-path="url(#pb3aff0601c)" d="M 107.631405 76041.340106 
L 110.705785 76041.340106 
L 110.705785 186.086987 
L 107.631405 186.086987 
z
" style="fill:#008fd5;opacity:0.6;"/>
   </g>
   <g id="patch_23">
    <path clip-path="url(#pb3aff0601c)" d="M 110.705785 76041.340106 
L 113.780165 76041.340106 
L 113.780165 186.086987 
L 110.705785 186.086987 
z
" style="fill:#008fd5;opacity:0.6;"/>
   </g>
   <g id="patch_24">
    <path clip-path="url(#pb3aff0601c)" d="M 113.780165 76041.340106 
L 116.854545 76041.340106 
L 116.854545 222.38 
L 113.780165 222.38 
z
" style="fill:#008fd5;opacity:0.6;"/>
   </g>
   <g id="patch_25">
    <path clip-path="url(#pb3aff0601c)" d="M 116.854545 76041.340106 
L 119.928926 76041.340106 
L 119.928926 199.481658 
L 116.854545 199.481658 
z
" style="fill:#008fd5;opacity:0.6;"/>
   </g>
   <g id="patch_26">
    <path clip-path="url(#pb3aff0601c)" d="M 119.928926 76041.340106 
L 123.003306 76041.340106 
L 123.003306 76041.340106 
L 119.928926 76041.340106 
z
" style="fill:#008fd5;opacity:0.6;"/>
   </g>
   <g id="patch_27">
    <path clip-path="url(#pb3aff0601c)" d="M 123.003306 76041.340106 
L 126.077686 76041.340106 
L 126.077686 176.583317 
L 123.003306 176.583317 
z
" style="fill:#008fd5;opacity:0.6;"/>
   </g>
   <g id="patch_28">
    <path clip-path="url(#pb3aff0601c)" d="M 126.077686 76041.340106 
L 129.152066 76041.340106 
L 129.152066 222.38 
L 126.077686 222.38 
z
" style="fill:#008fd5;opacity:0.6;"/>
   </g>
   <g id="patch_29">
    <path clip-path="url(#pb3aff0601c)" d="M 129.152066 76041.340106 
L 132.226446 76041.340106 
L 132.226446 76041.340106 
L 129.152066 76041.340106 
z
" style="fill:#008fd5;opacity:0.6;"/>
   </g>
   <g id="patch_30">
    <path clip-path="url(#pb3aff0601c)" d="M 132.226446 76041.340106 
L 135.300826 76041.340106 
L 135.300826 76041.340106 
L 132.226446 76041.340106 
z
" style="fill:#008fd5;opacity:0.6;"/>
   </g>
   <g id="patch_31">
    <path clip-path="url(#pb3aff0601c)" d="M 135.300826 76041.340106 
L 138.375207 76041.340106 
L 138.375207 222.38 
L 135.300826 222.38 
z
" style="fill:#008fd5;opacity:0.6;"/>
   </g>
   <g id="patch_32">
    <path clip-path="url(#pb3aff0601c)" d="M 138.375207 76041.340106 
L 141.449587 76041.340106 
L 141.449587 186.086987 
L 138.375207 186.086987 
z
" style="fill:#008fd5;opacity:0.6;"/>
   </g>
   <g id="patch_33">
    <path clip-path="url(#pb3aff0601c)" d="M 141.449587 76041.340106 
L 144.523967 76041.340106 
L 144.523967 76041.340106 
L 141.449587 76041.340106 
z
" style="fill:#008fd5;opacity:0.6;"/>
   </g>
   <g id="patch_34">
    <path clip-path="url(#pb3aff0601c)" d="M 144.523967 76041.340106 
L 147.598347 76041.340106 
L 147.598347 76041.340106 
L 144.523967 76041.340106 
z
" style="fill:#008fd5;opacity:0.6;"/>
   </g>
   <g id="patch_35">
    <path clip-path="url(#pb3aff0601c)" d="M 147.598347 76041.340106 
L 150.672727 76041.340106 
L 150.672727 199.481658 
L 147.598347 199.481658 
z
" style="fill:#008fd5;opacity:0.6;"/>
   </g>
   <g id="patch_36">
    <path clip-path="url(#pb3aff0601c)" d="M 150.672727 76041.340106 
L 153.747107 76041.340106 
L 153.747107 76041.340106 
L 150.672727 76041.340106 
z
" style="fill:#008fd5;opacity:0.6;"/>
   </g>
   <g id="patch_37">
    <path clip-path="url(#pb3aff0601c)" d="M 153.747107 76041.340106 
L 156.821488 76041.340106 
L 156.821488 76041.340106 
L 153.747107 76041.340106 
z
" style="fill:#008fd5;opacity:0.6;"/>
   </g>
   <g id="patch_38">
    <path clip-path="url(#pb3aff0601c)" d="M 156.821488 76041.340106 
L 159.895868 76041.340106 
L 159.895868 76041.340106 
L 156.821488 76041.340106 
z
" style="fill:#008fd5;opacity:0.6;"/>
   </g>
   <g id="patch_39">
    <path clip-path="url(#pb3aff0601c)" d="M 159.895868 76041.340106 
L 162.970248 76041.340106 
L 162.970248 222.38 
L 159.895868 222.38 
z
" style="fill:#008fd5;opacity:0.6;"/>
   </g>
   <g id="patch_40">
    <path clip-path="url(#pb3aff0601c)" d="M 162.970248 76041.340106 
L 166.044628 76041.340106 
L 166.044628 222.38 
L 162.970248 222.38 
z
" style="fill:#008fd5;opacity:0.6;"/>
   </g>
   <g id="patch_41">
    <path clip-path="url(#pb3aff0601c)" d="M 166.044628 76041.340106 
L 169.119008 76041.340106 
L 169.119008 76041.340106 
L 166.044628 76041.340106 
z
" style="fill:#008fd5;opacity:0.6;"/>
   </g>
   <g id="patch_42">
    <path clip-path="url(#pb3aff0601c)" d="M 169.119008 76041.340106 
L 172.193388 76041.340106 
L 172.193388 222.38 
L 169.119008 222.38 
z
" style="fill:#008fd5;opacity:0.6;"/>
   </g>
   <g id="patch_43">
    <path clip-path="url(#pb3aff0601c)" d="M 172.193388 76041.340106 
L 175.267769 76041.340106 
L 175.267769 76041.340106 
L 172.193388 76041.340106 
z
" style="fill:#008fd5;opacity:0.6;"/>
   </g>
   <g id="patch_44">
    <path clip-path="url(#pb3aff0601c)" d="M 175.267769 76041.340106 
L 178.342149 76041.340106 
L 178.342149 222.38 
L 175.267769 222.38 
z
" style="fill:#008fd5;opacity:0.6;"/>
   </g>
   <g id="patch_45">
    <path clip-path="url(#pb3aff0601c)" d="M 178.342149 76041.340106 
L 181.416529 76041.340106 
L 181.416529 76041.340106 
L 178.342149 76041.340106 
z
" style="fill:#008fd5;opacity:0.6;"/>
   </g>
   <g id="patch_46">
    <path clip-path="url(#pb3aff0601c)" d="M 181.416529 76041.340106 
L 184.490909 76041.340106 
L 184.490909 76041.340106 
L 181.416529 76041.340106 
z
" style="fill:#008fd5;opacity:0.6;"/>
   </g>
   <g id="patch_47">
    <path clip-path="url(#pb3aff0601c)" d="M 184.490909 76041.340106 
L 187.565289 76041.340106 
L 187.565289 222.38 
L 184.490909 222.38 
z
" style="fill:#008fd5;opacity:0.6;"/>
   </g>
   <g id="patch_48">
    <path clip-path="url(#pb3aff0601c)" d="M 187.565289 76041.340106 
L 190.639669 76041.340106 
L 190.639669 76041.340106 
L 187.565289 76041.340106 
z
" style="fill:#008fd5;opacity:0.6;"/>
   </g>
   <g id="patch_49">
    <path clip-path="url(#pb3aff0601c)" d="M 190.639669 76041.340106 
L 193.71405 76041.340106 
L 193.71405 76041.340106 
L 190.639669 76041.340106 
z
" style="fill:#008fd5;opacity:0.6;"/>
   </g>
   <g id="patch_50">
    <path clip-path="url(#pb3aff0601c)" d="M 193.71405 76041.340106 
L 196.78843 76041.340106 
L 196.78843 76041.340106 
L 193.71405 76041.340106 
z
" style="fill:#008fd5;opacity:0.6;"/>
   </g>
   <g id="patch_51">
    <path clip-path="url(#pb3aff0601c)" d="M 196.78843 76041.340106 
L 199.86281 76041.340106 
L 199.86281 76041.340106 
L 196.78843 76041.340106 
z
" style="fill:#008fd5;opacity:0.6;"/>
   </g>
   <g id="patch_52">
    <path clip-path="url(#pb3aff0601c)" d="M 199.86281 76041.340106 
L 202.93719 76041.340106 
L 202.93719 76041.340106 
L 199.86281 76041.340106 
z
" style="fill:#008fd5;opacity:0.6;"/>
   </g>
   <g id="patch_53">
    <path clip-path="url(#pb3aff0601c)" d="M 202.93719 76041.340106 
L 206.01157 76041.340106 
L 206.01157 76041.340106 
L 202.93719 76041.340106 
z
" style="fill:#008fd5;opacity:0.6;"/>
   </g>
   <g id="patch_54">
    <path clip-path="url(#pb3aff0601c)" d="M 206.01157 76041.340106 
L 209.08595 76041.340106 
L 209.08595 222.38 
L 206.01157 222.38 
z
" style="fill:#008fd5;opacity:0.6;"/>
   </g>
   <g id="patch_55">
    <path clip-path="url(#pb3aff0601c)" d="M 209.08595 76041.340106 
L 212.160331 76041.340106 
L 212.160331 76041.340106 
L 209.08595 76041.340106 
z
" style="fill:#008fd5;opacity:0.6;"/>
   </g>
   <g id="patch_56">
    <path clip-path="url(#pb3aff0601c)" d="M 212.160331 76041.340106 
L 215.234711 76041.340106 
L 215.234711 76041.340106 
L 212.160331 76041.340106 
z
" style="fill:#008fd5;opacity:0.6;"/>
   </g>
   <g id="patch_57">
    <path clip-path="url(#pb3aff0601c)" d="M 215.234711 76041.340106 
L 218.309091 76041.340106 
L 218.309091 222.38 
L 215.234711 222.38 
z
" style="fill:#008fd5;opacity:0.6;"/>
   </g>
   <g id="patch_58">
    <path clip-path="url(#pb3aff0601c)" d="M 218.309091 76041.340106 
L 221.383471 76041.340106 
L 221.383471 76041.340106 
L 218.309091 76041.340106 
z
" style="fill:#008fd5;opacity:0.6;"/>
   </g>
   <g id="patch_59">
    <path clip-path="url(#pb3aff0601c)" d="M 221.383471 76041.340106 
L 224.457851 76041.340106 
L 224.457851 76041.340106 
L 221.383471 76041.340106 
z
" style="fill:#008fd5;opacity:0.6;"/>
   </g>
   <g id="patch_60">
    <path clip-path="url(#pb3aff0601c)" d="M 224.457851 76041.340106 
L 227.532231 76041.340106 
L 227.532231 76041.340106 
L 224.457851 76041.340106 
z
" style="fill:#008fd5;opacity:0.6;"/>
   </g>
   <g id="patch_61">
    <path clip-path="url(#pb3aff0601c)" d="M 227.532231 76041.340106 
L 230.606612 76041.340106 
L 230.606612 222.38 
L 227.532231 222.38 
z
" style="fill:#008fd5;opacity:0.6;"/>
   </g>
   <g id="patch_62">
    <path clip-path="url(#pb3aff0601c)" d="M 230.606612 76041.340106 
L 233.680992 76041.340106 
L 233.680992 76041.340106 
L 230.606612 76041.340106 
z
" style="fill:#008fd5;opacity:0.6;"/>
   </g>
   <g id="patch_63">
    <path clip-path="url(#pb3aff0601c)" d="M 233.680992 76041.340106 
L 236.755372 76041.340106 
L 236.755372 76041.340106 
L 233.680992 76041.340106 
z
" style="fill:#008fd5;opacity:0.6;"/>
   </g>
   <g id="patch_64">
    <path clip-path="url(#pb3aff0601c)" d="M 236.755372 76041.340106 
L 239.829752 76041.340106 
L 239.829752 76041.340106 
L 236.755372 76041.340106 
z
" style="fill:#008fd5;opacity:0.6;"/>
   </g>
   <g id="patch_65">
    <path clip-path="url(#pb3aff0601c)" d="M 239.829752 76041.340106 
L 242.904132 76041.340106 
L 242.904132 76041.340106 
L 239.829752 76041.340106 
z
" style="fill:#008fd5;opacity:0.6;"/>
   </g>
   <g id="patch_66">
    <path clip-path="url(#pb3aff0601c)" d="M 242.904132 76041.340106 
L 245.978512 76041.340106 
L 245.978512 76041.340106 
L 242.904132 76041.340106 
z
" style="fill:#008fd5;opacity:0.6;"/>
   </g>
   <g id="patch_67">
    <path clip-path="url(#pb3aff0601c)" d="M 245.978512 76041.340106 
L 249.052893 76041.340106 
L 249.052893 76041.340106 
L 245.978512 76041.340106 
z
" style="fill:#008fd5;opacity:0.6;"/>
   </g>
   <g id="patch_68">
    <path clip-path="url(#pb3aff0601c)" d="M 249.052893 76041.340106 
L 252.127273 76041.340106 
L 252.127273 76041.340106 
L 249.052893 76041.340106 
z
" style="fill:#008fd5;opacity:0.6;"/>
   </g>
   <g id="patch_69">
    <path clip-path="url(#pb3aff0601c)" d="M 252.127273 76041.340106 
L 255.201653 76041.340106 
L 255.201653 76041.340106 
L 252.127273 76041.340106 
z
" style="fill:#008fd5;opacity:0.6;"/>
   </g>
   <g id="patch_70">
    <path clip-path="url(#pb3aff0601c)" d="M 255.201653 76041.340106 
L 258.276033 76041.340106 
L 258.276033 76041.340106 
L 255.201653 76041.340106 
z
" style="fill:#008fd5;opacity:0.6;"/>
   </g>
   <g id="patch_71">
    <path clip-path="url(#pb3aff0601c)" d="M 258.276033 76041.340106 
L 261.350413 76041.340106 
L 261.350413 76041.340106 
L 258.276033 76041.340106 
z
" style="fill:#008fd5;opacity:0.6;"/>
   </g>
   <g id="patch_72">
    <path clip-path="url(#pb3aff0601c)" d="M 261.350413 76041.340106 
L 264.424793 76041.340106 
L 264.424793 76041.340106 
L 261.350413 76041.340106 
z
" style="fill:#008fd5;opacity:0.6;"/>
   </g>
   <g id="patch_73">
    <path clip-path="url(#pb3aff0601c)" d="M 264.424793 76041.340106 
L 267.499174 76041.340106 
L 267.499174 76041.340106 
L 264.424793 76041.340106 
z
" style="fill:#008fd5;opacity:0.6;"/>
   </g>
   <g id="patch_74">
    <path clip-path="url(#pb3aff0601c)" d="M 267.499174 76041.340106 
L 270.573554 76041.340106 
L 270.573554 76041.340106 
L 267.499174 76041.340106 
z
" style="fill:#008fd5;opacity:0.6;"/>
   </g>
   <g id="patch_75">
    <path clip-path="url(#pb3aff0601c)" d="M 270.573554 76041.340106 
L 273.647934 76041.340106 
L 273.647934 76041.340106 
L 270.573554 76041.340106 
z
" style="fill:#008fd5;opacity:0.6;"/>
   </g>
   <g id="patch_76">
    <path clip-path="url(#pb3aff0601c)" d="M 273.647934 76041.340106 
L 276.722314 76041.340106 
L 276.722314 76041.340106 
L 273.647934 76041.340106 
z
" style="fill:#008fd5;opacity:0.6;"/>
   </g>
   <g id="patch_77">
    <path clip-path="url(#pb3aff0601c)" d="M 276.722314 76041.340106 
L 279.796694 76041.340106 
L 279.796694 76041.340106 
L 276.722314 76041.340106 
z
" style="fill:#008fd5;opacity:0.6;"/>
   </g>
   <g id="patch_78">
    <path clip-path="url(#pb3aff0601c)" d="M 279.796694 76041.340106 
L 282.871074 76041.340106 
L 282.871074 222.38 
L 279.796694 222.38 
z
" style="fill:#008fd5;opacity:0.6;"/>
   </g>
   <g id="patch_79">
    <path clip-path="url(#pb3aff0601c)" d="M 282.871074 76041.340106 
L 285.945455 76041.340106 
L 285.945455 76041.340106 
L 282.871074 76041.340106 
z
" style="fill:#008fd5;opacity:0.6;"/>
   </g>
   <g id="patch_80">
    <path clip-path="url(#pb3aff0601c)" d="M 285.945455 76041.340106 
L 289.019835 76041.340106 
L 289.019835 76041.340106 
L 285.945455 76041.340106 
z
" style="fill:#008fd5;opacity:0.6;"/>
   </g>
   <g id="patch_81">
    <path clip-path="url(#pb3aff0601c)" d="M 289.019835 76041.340106 
L 292.094215 76041.340106 
L 292.094215 76041.340106 
L 289.019835 76041.340106 
z
" style="fill:#008fd5;opacity:0.6;"/>
   </g>
   <g id="patch_82">
    <path clip-path="url(#pb3aff0601c)" d="M 292.094215 76041.340106 
L 295.168595 76041.340106 
L 295.168595 76041.340106 
L 292.094215 76041.340106 
z
" style="fill:#008fd5;opacity:0.6;"/>
   </g>
   <g id="patch_83">
    <path clip-path="url(#pb3aff0601c)" d="M 295.168595 76041.340106 
L 298.242975 76041.340106 
L 298.242975 76041.340106 
L 295.168595 76041.340106 
z
" style="fill:#008fd5;opacity:0.6;"/>
   </g>
   <g id="patch_84">
    <path clip-path="url(#pb3aff0601c)" d="M 298.242975 76041.340106 
L 301.317355 76041.340106 
L 301.317355 76041.340106 
L 298.242975 76041.340106 
z
" style="fill:#008fd5;opacity:0.6;"/>
   </g>
   <g id="patch_85">
    <path clip-path="url(#pb3aff0601c)" d="M 301.317355 76041.340106 
L 304.391736 76041.340106 
L 304.391736 76041.340106 
L 301.317355 76041.340106 
z
" style="fill:#008fd5;opacity:0.6;"/>
   </g>
   <g id="patch_86">
    <path clip-path="url(#pb3aff0601c)" d="M 304.391736 76041.340106 
L 307.466116 76041.340106 
L 307.466116 76041.340106 
L 304.391736 76041.340106 
z
" style="fill:#008fd5;opacity:0.6;"/>
   </g>
   <g id="patch_87">
    <path clip-path="url(#pb3aff0601c)" d="M 307.466116 76041.340106 
L 310.540496 76041.340106 
L 310.540496 76041.340106 
L 307.466116 76041.340106 
z
" style="fill:#008fd5;opacity:0.6;"/>
   </g>
   <g id="patch_88">
    <path clip-path="url(#pb3aff0601c)" d="M 310.540496 76041.340106 
L 313.614876 76041.340106 
L 313.614876 76041.340106 
L 310.540496 76041.340106 
z
" style="fill:#008fd5;opacity:0.6;"/>
   </g>
   <g id="patch_89">
    <path clip-path="url(#pb3aff0601c)" d="M 313.614876 76041.340106 
L 316.689256 76041.340106 
L 316.689256 76041.340106 
L 313.614876 76041.340106 
z
" style="fill:#008fd5;opacity:0.6;"/>
   </g>
   <g id="patch_90">
    <path clip-path="url(#pb3aff0601c)" d="M 316.689256 76041.340106 
L 319.763636 76041.340106 
L 319.763636 76041.340106 
L 316.689256 76041.340106 
z
" style="fill:#008fd5;opacity:0.6;"/>
   </g>
   <g id="patch_91">
    <path clip-path="url(#pb3aff0601c)" d="M 319.763636 76041.340106 
L 322.838017 76041.340106 
L 322.838017 76041.340106 
L 319.763636 76041.340106 
z
" style="fill:#008fd5;opacity:0.6;"/>
   </g>
   <g id="patch_92">
    <path clip-path="url(#pb3aff0601c)" d="M 322.838017 76041.340106 
L 325.912397 76041.340106 
L 325.912397 76041.340106 
L 322.838017 76041.340106 
z
" style="fill:#008fd5;opacity:0.6;"/>
   </g>
   <g id="patch_93">
    <path clip-path="url(#pb3aff0601c)" d="M 325.912397 76041.340106 
L 328.986777 76041.340106 
L 328.986777 76041.340106 
L 325.912397 76041.340106 
z
" style="fill:#008fd5;opacity:0.6;"/>
   </g>
   <g id="patch_94">
    <path clip-path="url(#pb3aff0601c)" d="M 328.986777 76041.340106 
L 332.061157 76041.340106 
L 332.061157 76041.340106 
L 328.986777 76041.340106 
z
" style="fill:#008fd5;opacity:0.6;"/>
   </g>
   <g id="patch_95">
    <path clip-path="url(#pb3aff0601c)" d="M 332.061157 76041.340106 
L 335.135537 76041.340106 
L 335.135537 76041.340106 
L 332.061157 76041.340106 
z
" style="fill:#008fd5;opacity:0.6;"/>
   </g>
   <g id="patch_96">
    <path clip-path="url(#pb3aff0601c)" d="M 335.135537 76041.340106 
L 338.209917 76041.340106 
L 338.209917 76041.340106 
L 335.135537 76041.340106 
z
" style="fill:#008fd5;opacity:0.6;"/>
   </g>
   <g id="patch_97">
    <path clip-path="url(#pb3aff0601c)" d="M 338.209917 76041.340106 
L 341.284298 76041.340106 
L 341.284298 76041.340106 
L 338.209917 76041.340106 
z
" style="fill:#008fd5;opacity:0.6;"/>
   </g>
   <g id="patch_98">
    <path clip-path="url(#pb3aff0601c)" d="M 341.284298 76041.340106 
L 344.358678 76041.340106 
L 344.358678 76041.340106 
L 341.284298 76041.340106 
z
" style="fill:#008fd5;opacity:0.6;"/>
   </g>
   <g id="patch_99">
    <path clip-path="url(#pb3aff0601c)" d="M 344.358678 76041.340106 
L 347.433058 76041.340106 
L 347.433058 222.38 
L 344.358678 222.38 
z
" style="fill:#008fd5;opacity:0.6;"/>
   </g>
   <g id="patch_100">
    <path clip-path="url(#pb3aff0601c)" d="M 347.433058 76041.340106 
L 350.507438 76041.340106 
L 350.507438 76041.340106 
L 347.433058 76041.340106 
z
" style="fill:#008fd5;opacity:0.6;"/>
   </g>
   <g id="patch_101">
    <path clip-path="url(#pb3aff0601c)" d="M 350.507438 76041.340106 
L 353.581818 76041.340106 
L 353.581818 76041.340106 
L 350.507438 76041.340106 
z
" style="fill:#008fd5;opacity:0.6;"/>
   </g>
   <g id="patch_102">
    <path clip-path="url(#pb3aff0601c)" d="M 49.218182 76041.340106 
L 52.292562 76041.340106 
L 52.292562 146.578701 
L 49.218182 146.578701 
z
" style="fill:#fc4f30;opacity:0.6;"/>
   </g>
   <g id="patch_103">
    <path clip-path="url(#pb3aff0601c)" d="M 52.292562 76041.340106 
L 55.366942 76041.340106 
L 55.366942 133.18403 
L 52.292562 133.18403 
z
" style="fill:#fc4f30;opacity:0.6;"/>
   </g>
   <g id="patch_104">
    <path clip-path="url(#pb3aff0601c)" d="M 55.366942 76041.340106 
L 58.441322 76041.340106 
L 58.441322 169.477043 
L 55.366942 169.477043 
z
" style="fill:#fc4f30;opacity:0.6;"/>
   </g>
   <g id="patch_105">
    <path clip-path="url(#pb3aff0601c)" d="M 58.441322 76041.340106 
L 61.515702 76041.340106 
L 61.515702 146.578701 
L 58.441322 146.578701 
z
" style="fill:#fc4f30;opacity:0.6;"/>
   </g>
   <g id="patch_106">
    <path clip-path="url(#pb3aff0601c)" d="M 61.515702 76041.340106 
L 64.590083 76041.340106 
L 64.590083 143.430098 
L 61.515702 143.430098 
z
" style="fill:#fc4f30;opacity:0.6;"/>
   </g>
   <g id="patch_107">
    <path clip-path="url(#pb3aff0601c)" d="M 64.590083 76041.340106 
L 67.664463 76041.340106 
L 67.664463 163.453991 
L 64.590083 163.453991 
z
" style="fill:#fc4f30;opacity:0.6;"/>
   </g>
   <g id="patch_108">
    <path clip-path="url(#pb3aff0601c)" d="M 67.664463 76041.340106 
L 70.738843 76041.340106 
L 70.738843 158.361573 
L 67.664463 158.361573 
z
" style="fill:#fc4f30;opacity:0.6;"/>
   </g>
   <g id="patch_109">
    <path clip-path="url(#pb3aff0601c)" d="M 70.738843 76041.340106 
L 73.813223 76041.340106 
L 73.813223 131.051979 
L 70.738843 131.051979 
z
" style="fill:#fc4f30;opacity:0.6;"/>
   </g>
   <g id="patch_110">
    <path clip-path="url(#pb3aff0601c)" d="M 73.813223 76041.340106 
L 76.887603 76041.340106 
L 76.887603 150.05932 
L 73.813223 150.05932 
z
" style="fill:#fc4f30;opacity:0.6;"/>
   </g>
   <g id="patch_111">
    <path clip-path="url(#pb3aff0601c)" d="M 76.887603 76041.340106 
L 79.961983 76041.340106 
L 79.961983 169.477043 
L 76.887603 169.477043 
z
" style="fill:#fc4f30;opacity:0.6;"/>
   </g>
   <g id="patch_112">
    <path clip-path="url(#pb3aff0601c)" d="M 79.961983 76041.340106 
L 83.036364 76041.340106 
L 83.036364 143.430098 
L 79.961983 143.430098 
z
" style="fill:#fc4f30;opacity:0.6;"/>
   </g>
   <g id="patch_113">
    <path clip-path="url(#pb3aff0601c)" d="M 83.036364 76041.340106 
L 86.110744 76041.340106 
L 86.110744 150.05932 
L 83.036364 150.05932 
z
" style="fill:#fc4f30;opacity:0.6;"/>
   </g>
   <g id="patch_114">
    <path clip-path="url(#pb3aff0601c)" d="M 86.110744 76041.340106 
L 89.185124 76041.340106 
L 89.185124 146.578701 
L 86.110744 146.578701 
z
" style="fill:#fc4f30;opacity:0.6;"/>
   </g>
   <g id="patch_115">
    <path clip-path="url(#pb3aff0601c)" d="M 89.185124 76041.340106 
L 92.259504 76041.340106 
L 92.259504 137.911412 
L 89.185124 137.911412 
z
" style="fill:#fc4f30;opacity:0.6;"/>
   </g>
   <g id="patch_116">
    <path clip-path="url(#pb3aff0601c)" d="M 92.259504 76041.340106 
L 95.333884 76041.340106 
L 95.333884 150.05932 
L 92.259504 150.05932 
z
" style="fill:#fc4f30;opacity:0.6;"/>
   </g>
   <g id="patch_117">
    <path clip-path="url(#pb3aff0601c)" d="M 95.333884 76041.340106 
L 98.408264 76041.340106 
L 98.408264 131.051979 
L 95.333884 131.051979 
z
" style="fill:#fc4f30;opacity:0.6;"/>
   </g>
   <g id="patch_118">
    <path clip-path="url(#pb3aff0601c)" d="M 98.408264 76041.340106 
L 101.482645 76041.340106 
L 101.482645 163.453991 
L 98.408264 163.453991 
z
" style="fill:#fc4f30;opacity:0.6;"/>
   </g>
   <g id="patch_119">
    <path clip-path="url(#pb3aff0601c)" d="M 101.482645 76041.340106 
L 104.557025 76041.340106 
L 104.557025 169.477043 
L 101.482645 169.477043 
z
" style="fill:#fc4f30;opacity:0.6;"/>
   </g>
   <g id="patch_120">
    <path clip-path="url(#pb3aff0601c)" d="M 104.557025 76041.340106 
L 107.631405 76041.340106 
L 107.631405 158.361573 
L 104.557025 158.361573 
z
" style="fill:#fc4f30;opacity:0.6;"/>
   </g>
   <g id="patch_121">
    <path clip-path="url(#pb3aff0601c)" d="M 107.631405 76041.340106 
L 110.705785 76041.340106 
L 110.705785 140.555649 
L 107.631405 140.555649 
z
" style="fill:#fc4f30;opacity:0.6;"/>
   </g>
   <g id="patch_122">
    <path clip-path="url(#pb3aff0601c)" d="M 110.705785 76041.340106 
L 113.780165 76041.340106 
L 113.780165 131.051979 
L 110.705785 131.051979 
z
" style="fill:#fc4f30;opacity:0.6;"/>
   </g>
   <g id="patch_123">
    <path clip-path="url(#pb3aff0601c)" d="M 113.780165 76041.340106 
L 116.854545 76041.340106 
L 116.854545 140.555649 
L 113.780165 140.555649 
z
" style="fill:#fc4f30;opacity:0.6;"/>
   </g>
   <g id="patch_124">
    <path clip-path="url(#pb3aff0601c)" d="M 116.854545 76041.340106 
L 119.928926 76041.340106 
L 119.928926 146.578701 
L 116.854545 146.578701 
z
" style="fill:#fc4f30;opacity:0.6;"/>
   </g>
   <g id="patch_125">
    <path clip-path="url(#pb3aff0601c)" d="M 119.928926 76041.340106 
L 123.003306 76041.340106 
L 123.003306 158.361573 
L 119.928926 158.361573 
z
" style="fill:#fc4f30;opacity:0.6;"/>
   </g>
   <g id="patch_126">
    <path clip-path="url(#pb3aff0601c)" d="M 123.003306 76041.340106 
L 126.077686 76041.340106 
L 126.077686 150.05932 
L 123.003306 150.05932 
z
" style="fill:#fc4f30;opacity:0.6;"/>
   </g>
   <g id="patch_127">
    <path clip-path="url(#pb3aff0601c)" d="M 126.077686 76041.340106 
L 129.152066 76041.340106 
L 129.152066 143.430098 
L 126.077686 143.430098 
z
" style="fill:#fc4f30;opacity:0.6;"/>
   </g>
   <g id="patch_128">
    <path clip-path="url(#pb3aff0601c)" d="M 129.152066 76041.340106 
L 132.226446 76041.340106 
L 132.226446 150.05932 
L 129.152066 150.05932 
z
" style="fill:#fc4f30;opacity:0.6;"/>
   </g>
   <g id="patch_129">
    <path clip-path="url(#pb3aff0601c)" d="M 132.226446 76041.340106 
L 135.300826 76041.340106 
L 135.300826 140.555649 
L 132.226446 140.555649 
z
" style="fill:#fc4f30;opacity:0.6;"/>
   </g>
   <g id="patch_130">
    <path clip-path="url(#pb3aff0601c)" d="M 135.300826 76041.340106 
L 138.375207 76041.340106 
L 138.375207 146.578701 
L 135.300826 146.578701 
z
" style="fill:#fc4f30;opacity:0.6;"/>
   </g>
   <g id="patch_131">
    <path clip-path="url(#pb3aff0601c)" d="M 138.375207 76041.340106 
L 141.449587 76041.340106 
L 141.449587 123.680359 
L 138.375207 123.680359 
z
" style="fill:#fc4f30;opacity:0.6;"/>
   </g>
   <g id="patch_132">
    <path clip-path="url(#pb3aff0601c)" d="M 141.449587 76041.340106 
L 144.523967 76041.340106 
L 144.523967 158.361573 
L 141.449587 158.361573 
z
" style="fill:#fc4f30;opacity:0.6;"/>
   </g>
   <g id="patch_133">
    <path clip-path="url(#pb3aff0601c)" d="M 144.523967 76041.340106 
L 147.598347 76041.340106 
L 147.598347 146.578701 
L 144.523967 146.578701 
z
" style="fill:#fc4f30;opacity:0.6;"/>
   </g>
   <g id="patch_134">
    <path clip-path="url(#pb3aff0601c)" d="M 147.598347 76041.340106 
L 150.672727 76041.340106 
L 150.672727 163.453991 
L 147.598347 163.453991 
z
" style="fill:#fc4f30;opacity:0.6;"/>
   </g>
   <g id="patch_135">
    <path clip-path="url(#pb3aff0601c)" d="M 150.672727 76041.340106 
L 153.747107 76041.340106 
L 153.747107 143.430098 
L 150.672727 143.430098 
z
" style="fill:#fc4f30;opacity:0.6;"/>
   </g>
   <g id="patch_136">
    <path clip-path="url(#pb3aff0601c)" d="M 153.747107 76041.340106 
L 156.821488 76041.340106 
L 156.821488 153.95032 
L 153.747107 153.95032 
z
" style="fill:#fc4f30;opacity:0.6;"/>
   </g>
   <g id="patch_137">
    <path clip-path="url(#pb3aff0601c)" d="M 156.821488 76041.340106 
L 159.895868 76041.340106 
L 159.895868 140.555649 
L 156.821488 140.555649 
z
" style="fill:#fc4f30;opacity:0.6;"/>
   </g>
   <g id="patch_138">
    <path clip-path="url(#pb3aff0601c)" d="M 159.895868 76041.340106 
L 162.970248 76041.340106 
L 162.970248 153.95032 
L 159.895868 153.95032 
z
" style="fill:#fc4f30;opacity:0.6;"/>
   </g>
   <g id="patch_139">
    <path clip-path="url(#pb3aff0601c)" d="M 162.970248 76041.340106 
L 166.044628 76041.340106 
L 166.044628 153.95032 
L 162.970248 153.95032 
z
" style="fill:#fc4f30;opacity:0.6;"/>
   </g>
   <g id="patch_140">
    <path clip-path="url(#pb3aff0601c)" d="M 166.044628 76041.340106 
L 169.119008 76041.340106 
L 169.119008 158.361573 
L 166.044628 158.361573 
z
" style="fill:#fc4f30;opacity:0.6;"/>
   </g>
   <g id="patch_141">
    <path clip-path="url(#pb3aff0601c)" d="M 169.119008 76041.340106 
L 172.193388 76041.340106 
L 172.193388 146.578701 
L 169.119008 146.578701 
z
" style="fill:#fc4f30;opacity:0.6;"/>
   </g>
   <g id="patch_142">
    <path clip-path="url(#pb3aff0601c)" d="M 172.193388 76041.340106 
L 175.267769 76041.340106 
L 175.267769 146.578701 
L 172.193388 146.578701 
z
" style="fill:#fc4f30;opacity:0.6;"/>
   </g>
   <g id="patch_143">
    <path clip-path="url(#pb3aff0601c)" d="M 175.267769 76041.340106 
L 178.342149 76041.340106 
L 178.342149 140.555649 
L 175.267769 140.555649 
z
" style="fill:#fc4f30;opacity:0.6;"/>
   </g>
   <g id="patch_144">
    <path clip-path="url(#pb3aff0601c)" d="M 178.342149 76041.340106 
L 181.416529 76041.340106 
L 181.416529 143.430098 
L 178.342149 143.430098 
z
" style="fill:#fc4f30;opacity:0.6;"/>
   </g>
   <g id="patch_145">
    <path clip-path="url(#pb3aff0601c)" d="M 181.416529 76041.340106 
L 184.490909 76041.340106 
L 184.490909 158.361573 
L 181.416529 158.361573 
z
" style="fill:#fc4f30;opacity:0.6;"/>
   </g>
   <g id="patch_146">
    <path clip-path="url(#pb3aff0601c)" d="M 184.490909 76041.340106 
L 187.565289 76041.340106 
L 187.565289 137.911412 
L 184.490909 137.911412 
z
" style="fill:#fc4f30;opacity:0.6;"/>
   </g>
   <g id="patch_147">
    <path clip-path="url(#pb3aff0601c)" d="M 187.565289 76041.340106 
L 190.639669 76041.340106 
L 190.639669 153.95032 
L 187.565289 153.95032 
z
" style="fill:#fc4f30;opacity:0.6;"/>
   </g>
   <g id="patch_148">
    <path clip-path="url(#pb3aff0601c)" d="M 190.639669 76041.340106 
L 193.71405 76041.340106 
L 193.71405 158.361573 
L 190.639669 158.361573 
z
" style="fill:#fc4f30;opacity:0.6;"/>
   </g>
   <g id="patch_149">
    <path clip-path="url(#pb3aff0601c)" d="M 193.71405 76041.340106 
L 196.78843 76041.340106 
L 196.78843 140.555649 
L 193.71405 140.555649 
z
" style="fill:#fc4f30;opacity:0.6;"/>
   </g>
   <g id="patch_150">
    <path clip-path="url(#pb3aff0601c)" d="M 196.78843 76041.340106 
L 199.86281 76041.340106 
L 199.86281 169.477043 
L 196.78843 169.477043 
z
" style="fill:#fc4f30;opacity:0.6;"/>
   </g>
   <g id="patch_151">
    <path clip-path="url(#pb3aff0601c)" d="M 199.86281 76041.340106 
L 202.93719 76041.340106 
L 202.93719 120.531757 
L 199.86281 120.531757 
z
" style="fill:#fc4f30;opacity:0.6;"/>
   </g>
   <g id="patch_152">
    <path clip-path="url(#pb3aff0601c)" d="M 202.93719 76041.340106 
L 206.01157 76041.340106 
L 206.01157 133.18403 
L 202.93719 133.18403 
z
" style="fill:#fc4f30;opacity:0.6;"/>
   </g>
   <g id="patch_153">
    <path clip-path="url(#pb3aff0601c)" d="M 206.01157 76041.340106 
L 209.08595 76041.340106 
L 209.08595 169.477043 
L 206.01157 169.477043 
z
" style="fill:#fc4f30;opacity:0.6;"/>
   </g>
   <g id="patch_154">
    <path clip-path="url(#pb3aff0601c)" d="M 209.08595 76041.340106 
L 212.160331 76041.340106 
L 212.160331 140.555649 
L 209.08595 140.555649 
z
" style="fill:#fc4f30;opacity:0.6;"/>
   </g>
   <g id="patch_155">
    <path clip-path="url(#pb3aff0601c)" d="M 212.160331 76041.340106 
L 215.234711 76041.340106 
L 215.234711 158.361573 
L 212.160331 158.361573 
z
" style="fill:#fc4f30;opacity:0.6;"/>
   </g>
   <g id="patch_156">
    <path clip-path="url(#pb3aff0601c)" d="M 215.234711 76041.340106 
L 218.309091 76041.340106 
L 218.309091 135.463232 
L 215.234711 135.463232 
z
" style="fill:#fc4f30;opacity:0.6;"/>
   </g>
   <g id="patch_157">
    <path clip-path="url(#pb3aff0601c)" d="M 218.309091 76041.340106 
L 221.383471 76041.340106 
L 221.383471 131.051979 
L 218.309091 131.051979 
z
" style="fill:#fc4f30;opacity:0.6;"/>
   </g>
   <g id="patch_158">
    <path clip-path="url(#pb3aff0601c)" d="M 221.383471 76041.340106 
L 224.457851 76041.340106 
L 224.457851 135.463232 
L 221.383471 135.463232 
z
" style="fill:#fc4f30;opacity:0.6;"/>
   </g>
   <g id="patch_159">
    <path clip-path="url(#pb3aff0601c)" d="M 224.457851 76041.340106 
L 227.532231 76041.340106 
L 227.532231 146.578701 
L 224.457851 146.578701 
z
" style="fill:#fc4f30;opacity:0.6;"/>
   </g>
   <g id="patch_160">
    <path clip-path="url(#pb3aff0601c)" d="M 227.532231 76041.340106 
L 230.606612 76041.340106 
L 230.606612 169.477043 
L 227.532231 169.477043 
z
" style="fill:#fc4f30;opacity:0.6;"/>
   </g>
   <g id="patch_161">
    <path clip-path="url(#pb3aff0601c)" d="M 230.606612 76041.340106 
L 233.680992 76041.340106 
L 233.680992 143.430098 
L 230.606612 143.430098 
z
" style="fill:#fc4f30;opacity:0.6;"/>
   </g>
   <g id="patch_162">
    <path clip-path="url(#pb3aff0601c)" d="M 233.680992 76041.340106 
L 236.755372 76041.340106 
L 236.755372 137.911412 
L 233.680992 137.911412 
z
" style="fill:#fc4f30;opacity:0.6;"/>
   </g>
   <g id="patch_163">
    <path clip-path="url(#pb3aff0601c)" d="M 236.755372 76041.340106 
L 239.829752 76041.340106 
L 239.829752 140.555649 
L 236.755372 140.555649 
z
" style="fill:#fc4f30;opacity:0.6;"/>
   </g>
   <g id="patch_164">
    <path clip-path="url(#pb3aff0601c)" d="M 239.829752 76041.340106 
L 242.904132 76041.340106 
L 242.904132 143.430098 
L 239.829752 143.430098 
z
" style="fill:#fc4f30;opacity:0.6;"/>
   </g>
   <g id="patch_165">
    <path clip-path="url(#pb3aff0601c)" d="M 242.904132 76041.340106 
L 245.978512 76041.340106 
L 245.978512 153.95032 
L 242.904132 153.95032 
z
" style="fill:#fc4f30;opacity:0.6;"/>
   </g>
   <g id="patch_166">
    <path clip-path="url(#pb3aff0601c)" d="M 245.978512 76041.340106 
L 249.052893 76041.340106 
L 249.052893 137.911412 
L 245.978512 137.911412 
z
" style="fill:#fc4f30;opacity:0.6;"/>
   </g>
   <g id="patch_167">
    <path clip-path="url(#pb3aff0601c)" d="M 249.052893 76041.340106 
L 252.127273 76041.340106 
L 252.127273 176.848662 
L 249.052893 176.848662 
z
" style="fill:#fc4f30;opacity:0.6;"/>
   </g>
   <g id="patch_168">
    <path clip-path="url(#pb3aff0601c)" d="M 252.127273 76041.340106 
L 255.201653 76041.340106 
L 255.201653 127.160978 
L 252.127273 127.160978 
z
" style="fill:#fc4f30;opacity:0.6;"/>
   </g>
   <g id="patch_169">
    <path clip-path="url(#pb3aff0601c)" d="M 255.201653 76041.340106 
L 258.276033 76041.340106 
L 258.276033 163.453991 
L 255.201653 163.453991 
z
" style="fill:#fc4f30;opacity:0.6;"/>
   </g>
   <g id="patch_170">
    <path clip-path="url(#pb3aff0601c)" d="M 258.276033 76041.340106 
L 261.350413 76041.340106 
L 261.350413 140.555649 
L 258.276033 140.555649 
z
" style="fill:#fc4f30;opacity:0.6;"/>
   </g>
   <g id="patch_171">
    <path clip-path="url(#pb3aff0601c)" d="M 261.350413 76041.340106 
L 264.424793 76041.340106 
L 264.424793 163.453991 
L 261.350413 163.453991 
z
" style="fill:#fc4f30;opacity:0.6;"/>
   </g>
   <g id="patch_172">
    <path clip-path="url(#pb3aff0601c)" d="M 264.424793 76041.340106 
L 267.499174 76041.340106 
L 267.499174 150.05932 
L 264.424793 150.05932 
z
" style="fill:#fc4f30;opacity:0.6;"/>
   </g>
   <g id="patch_173">
    <path clip-path="url(#pb3aff0601c)" d="M 267.499174 76041.340106 
L 270.573554 76041.340106 
L 270.573554 131.051979 
L 267.499174 131.051979 
z
" style="fill:#fc4f30;opacity:0.6;"/>
   </g>
   <g id="patch_174">
    <path clip-path="url(#pb3aff0601c)" d="M 270.573554 76041.340106 
L 273.647934 76041.340106 
L 273.647934 163.453991 
L 270.573554 163.453991 
z
" style="fill:#fc4f30;opacity:0.6;"/>
   </g>
   <g id="patch_175">
    <path clip-path="url(#pb3aff0601c)" d="M 273.647934 76041.340106 
L 276.722314 76041.340106 
L 276.722314 150.05932 
L 273.647934 150.05932 
z
" style="fill:#fc4f30;opacity:0.6;"/>
   </g>
   <g id="patch_176">
    <path clip-path="url(#pb3aff0601c)" d="M 276.722314 76041.340106 
L 279.796694 76041.340106 
L 279.796694 169.477043 
L 276.722314 169.477043 
z
" style="fill:#fc4f30;opacity:0.6;"/>
   </g>
   <g id="patch_177">
    <path clip-path="url(#pb3aff0601c)" d="M 279.796694 76041.340106 
L 282.871074 76041.340106 
L 282.871074 169.477043 
L 279.796694 169.477043 
z
" style="fill:#fc4f30;opacity:0.6;"/>
   </g>
   <g id="patch_178">
    <path clip-path="url(#pb3aff0601c)" d="M 282.871074 76041.340106 
L 285.945455 76041.340106 
L 285.945455 137.911412 
L 282.871074 137.911412 
z
" style="fill:#fc4f30;opacity:0.6;"/>
   </g>
   <g id="patch_179">
    <path clip-path="url(#pb3aff0601c)" d="M 285.945455 76041.340106 
L 289.019835 76041.340106 
L 289.019835 150.05932 
L 285.945455 150.05932 
z
" style="fill:#fc4f30;opacity:0.6;"/>
   </g>
   <g id="patch_180">
    <path clip-path="url(#pb3aff0601c)" d="M 289.019835 76041.340106 
L 292.094215 76041.340106 
L 292.094215 146.578701 
L 289.019835 146.578701 
z
" style="fill:#fc4f30;opacity:0.6;"/>
   </g>
   <g id="patch_181">
    <path clip-path="url(#pb3aff0601c)" d="M 292.094215 76041.340106 
L 295.168595 76041.340106 
L 295.168595 140.555649 
L 292.094215 140.555649 
z
" style="fill:#fc4f30;opacity:0.6;"/>
   </g>
   <g id="patch_182">
    <path clip-path="url(#pb3aff0601c)" d="M 295.168595 76041.340106 
L 298.242975 76041.340106 
L 298.242975 143.430098 
L 295.168595 143.430098 
z
" style="fill:#fc4f30;opacity:0.6;"/>
   </g>
   <g id="patch_183">
    <path clip-path="url(#pb3aff0601c)" d="M 298.242975 76041.340106 
L 301.317355 76041.340106 
L 301.317355 158.361573 
L 298.242975 158.361573 
z
" style="fill:#fc4f30;opacity:0.6;"/>
   </g>
   <g id="patch_184">
    <path clip-path="url(#pb3aff0601c)" d="M 301.317355 76041.340106 
L 304.391736 76041.340106 
L 304.391736 137.911412 
L 301.317355 137.911412 
z
" style="fill:#fc4f30;opacity:0.6;"/>
   </g>
   <g id="patch_185">
    <path clip-path="url(#pb3aff0601c)" d="M 304.391736 76041.340106 
L 307.466116 76041.340106 
L 307.466116 150.05932 
L 304.391736 150.05932 
z
" style="fill:#fc4f30;opacity:0.6;"/>
   </g>
   <g id="patch_186">
    <path clip-path="url(#pb3aff0601c)" d="M 307.466116 76041.340106 
L 310.540496 76041.340106 
L 310.540496 158.361573 
L 307.466116 158.361573 
z
" style="fill:#fc4f30;opacity:0.6;"/>
   </g>
   <g id="patch_187">
    <path clip-path="url(#pb3aff0601c)" d="M 310.540496 76041.340106 
L 313.614876 76041.340106 
L 313.614876 137.911412 
L 310.540496 137.911412 
z
" style="fill:#fc4f30;opacity:0.6;"/>
   </g>
   <g id="patch_188">
    <path clip-path="url(#pb3aff0601c)" d="M 313.614876 76041.340106 
L 316.689256 76041.340106 
L 316.689256 146.578701 
L 313.614876 146.578701 
z
" style="fill:#fc4f30;opacity:0.6;"/>
   </g>
   <g id="patch_189">
    <path clip-path="url(#pb3aff0601c)" d="M 316.689256 76041.340106 
L 319.763636 76041.340106 
L 319.763636 150.05932 
L 316.689256 150.05932 
z
" style="fill:#fc4f30;opacity:0.6;"/>
   </g>
   <g id="patch_190">
    <path clip-path="url(#pb3aff0601c)" d="M 319.763636 76041.340106 
L 322.838017 76041.340106 
L 322.838017 143.430098 
L 319.763636 143.430098 
z
" style="fill:#fc4f30;opacity:0.6;"/>
   </g>
   <g id="patch_191">
    <path clip-path="url(#pb3aff0601c)" d="M 322.838017 76041.340106 
L 325.912397 76041.340106 
L 325.912397 129.049225 
L 322.838017 129.049225 
z
" style="fill:#fc4f30;opacity:0.6;"/>
   </g>
   <g id="patch_192">
    <path clip-path="url(#pb3aff0601c)" d="M 325.912397 76041.340106 
L 328.986777 76041.340106 
L 328.986777 158.361573 
L 325.912397 158.361573 
z
" style="fill:#fc4f30;opacity:0.6;"/>
   </g>
   <g id="patch_193">
    <path clip-path="url(#pb3aff0601c)" d="M 328.986777 76041.340106 
L 332.061157 76041.340106 
L 332.061157 140.555649 
L 328.986777 140.555649 
z
" style="fill:#fc4f30;opacity:0.6;"/>
   </g>
   <g id="patch_194">
    <path clip-path="url(#pb3aff0601c)" d="M 332.061157 76041.340106 
L 335.135537 76041.340106 
L 335.135537 169.477043 
L 332.061157 169.477043 
z
" style="fill:#fc4f30;opacity:0.6;"/>
   </g>
   <g id="patch_195">
    <path clip-path="url(#pb3aff0601c)" d="M 335.135537 76041.340106 
L 338.209917 76041.340106 
L 338.209917 143.430098 
L 335.135537 143.430098 
z
" style="fill:#fc4f30;opacity:0.6;"/>
   </g>
   <g id="patch_196">
    <path clip-path="url(#pb3aff0601c)" d="M 338.209917 76041.340106 
L 341.284298 76041.340106 
L 341.284298 140.555649 
L 338.209917 140.555649 
z
" style="fill:#fc4f30;opacity:0.6;"/>
   </g>
   <g id="patch_197">
    <path clip-path="url(#pb3aff0601c)" d="M 341.284298 76041.340106 
L 344.358678 76041.340106 
L 344.358678 169.477043 
L 341.284298 169.477043 
z
" style="fill:#fc4f30;opacity:0.6;"/>
   </g>
   <g id="patch_198">
    <path clip-path="url(#pb3aff0601c)" d="M 344.358678 76041.340106 
L 347.433058 76041.340106 
L 347.433058 150.05932 
L 344.358678 150.05932 
z
" style="fill:#fc4f30;opacity:0.6;"/>
   </g>
   <g id="patch_199">
    <path clip-path="url(#pb3aff0601c)" d="M 347.433058 76041.340106 
L 350.507438 76041.340106 
L 350.507438 140.555649 
L 347.433058 140.555649 
z
" style="fill:#fc4f30;opacity:0.6;"/>
   </g>
   <g id="patch_200">
    <path clip-path="url(#pb3aff0601c)" d="M 350.507438 76041.340106 
L 353.581818 76041.340106 
L 353.581818 140.555649 
L 350.507438 140.555649 
z
" style="fill:#fc4f30;opacity:0.6;"/>
   </g>
   <g id="matplotlib.axis_1">
    <g id="xtick_1">
     <g id="line2d_1">
      <path clip-path="url(#pb3aff0601c)" d="M 49.218182 232.46 
L 49.218182 10.7 
" style="fill:none;stroke:#cccccc;stroke-linecap:square;stroke-width:0.8;"/>
     </g>
     <g id="line2d_2">
      <defs>
       <path d="M 0 0 
L 0 3.5 
" id="ma0c37c9d21" style="stroke:#262626;stroke-width:0.8;"/>
      </defs>
      <g>
       <use style="fill:#262626;stroke:#262626;stroke-width:0.8;" x="49.218182" xlink:href="#ma0c37c9d21" y="232.46"/>
      </g>
     </g>
     <g id="text_1">
      <text style="fill:#262626;font-family:Museo Slab;font-size:10px;font-style:normal;font-weight:normal;text-anchor:middle;" transform="rotate(-0, 49.218182, 246.519375)" x="49.218182" y="246.519375">0</text>
     </g>
    </g>
    <g id="xtick_2">
     <g id="line2d_3">
      <path clip-path="url(#pb3aff0601c)" d="M 91.490909 232.46 
L 91.490909 10.7 
" style="fill:none;stroke:#cccccc;stroke-linecap:square;stroke-width:0.8;"/>
     </g>
     <g id="line2d_4">
      <g>
       <use style="fill:#262626;stroke:#262626;stroke-width:0.8;" x="91.490909" xlink:href="#ma0c37c9d21" y="232.46"/>
      </g>
     </g>
     <g id="text_2">
      <text style="fill:#262626;font-family:Museo Slab;font-size:10px;font-style:normal;font-weight:normal;text-anchor:middle;" transform="rotate(-0, 91.490909, 246.519375)" x="91.490909" y="246.519375">25</text>
     </g>
    </g>
    <g id="xtick_3">
     <g id="line2d_5">
      <path clip-path="url(#pb3aff0601c)" d="M 133.763636 232.46 
L 133.763636 10.7 
" style="fill:none;stroke:#cccccc;stroke-linecap:square;stroke-width:0.8;"/>
     </g>
     <g id="line2d_6">
      <g>
       <use style="fill:#262626;stroke:#262626;stroke-width:0.8;" x="133.763636" xlink:href="#ma0c37c9d21" y="232.46"/>
      </g>
     </g>
     <g id="text_3">
      <text style="fill:#262626;font-family:Museo Slab;font-size:10px;font-style:normal;font-weight:normal;text-anchor:middle;" transform="rotate(-0, 133.763636, 246.519375)" x="133.763636" y="246.519375">50</text>
     </g>
    </g>
    <g id="xtick_4">
     <g id="line2d_7">
      <path clip-path="url(#pb3aff0601c)" d="M 176.036364 232.46 
L 176.036364 10.7 
" style="fill:none;stroke:#cccccc;stroke-linecap:square;stroke-width:0.8;"/>
     </g>
     <g id="line2d_8">
      <g>
       <use style="fill:#262626;stroke:#262626;stroke-width:0.8;" x="176.036364" xlink:href="#ma0c37c9d21" y="232.46"/>
      </g>
     </g>
     <g id="text_4">
      <text style="fill:#262626;font-family:Museo Slab;font-size:10px;font-style:normal;font-weight:normal;text-anchor:middle;" transform="rotate(-0, 176.036364, 246.519375)" x="176.036364" y="246.519375">75</text>
     </g>
    </g>
    <g id="xtick_5">
     <g id="line2d_9">
      <path clip-path="url(#pb3aff0601c)" d="M 218.309091 232.46 
L 218.309091 10.7 
" style="fill:none;stroke:#cccccc;stroke-linecap:square;stroke-width:0.8;"/>
     </g>
     <g id="line2d_10">
      <g>
       <use style="fill:#262626;stroke:#262626;stroke-width:0.8;" x="218.309091" xlink:href="#ma0c37c9d21" y="232.46"/>
      </g>
     </g>
     <g id="text_5">
      <text style="fill:#262626;font-family:Museo Slab;font-size:10px;font-style:normal;font-weight:normal;text-anchor:middle;" transform="rotate(-0, 218.309091, 246.519375)" x="218.309091" y="246.519375">100</text>
     </g>
    </g>
    <g id="xtick_6">
     <g id="line2d_11">
      <path clip-path="url(#pb3aff0601c)" d="M 260.581818 232.46 
L 260.581818 10.7 
" style="fill:none;stroke:#cccccc;stroke-linecap:square;stroke-width:0.8;"/>
     </g>
     <g id="line2d_12">
      <g>
       <use style="fill:#262626;stroke:#262626;stroke-width:0.8;" x="260.581818" xlink:href="#ma0c37c9d21" y="232.46"/>
      </g>
     </g>
     <g id="text_6">
      <text style="fill:#262626;font-family:Museo Slab;font-size:10px;font-style:normal;font-weight:normal;text-anchor:middle;" transform="rotate(-0, 260.581818, 246.519375)" x="260.581818" y="246.519375">125</text>
     </g>
    </g>
    <g id="xtick_7">
     <g id="line2d_13">
      <path clip-path="url(#pb3aff0601c)" d="M 302.854545 232.46 
L 302.854545 10.7 
" style="fill:none;stroke:#cccccc;stroke-linecap:square;stroke-width:0.8;"/>
     </g>
     <g id="line2d_14">
      <g>
       <use style="fill:#262626;stroke:#262626;stroke-width:0.8;" x="302.854545" xlink:href="#ma0c37c9d21" y="232.46"/>
      </g>
     </g>
     <g id="text_7">
      <text style="fill:#262626;font-family:Museo Slab;font-size:10px;font-style:normal;font-weight:normal;text-anchor:middle;" transform="rotate(-0, 302.854545, 246.519375)" x="302.854545" y="246.519375">150</text>
     </g>
    </g>
    <g id="xtick_8">
     <g id="line2d_15">
      <path clip-path="url(#pb3aff0601c)" d="M 345.127273 232.46 
L 345.127273 10.7 
" style="fill:none;stroke:#cccccc;stroke-linecap:square;stroke-width:0.8;"/>
     </g>
     <g id="line2d_16">
      <g>
       <use style="fill:#262626;stroke:#262626;stroke-width:0.8;" x="345.127273" xlink:href="#ma0c37c9d21" y="232.46"/>
      </g>
     </g>
     <g id="text_8">
      <text style="fill:#262626;font-family:Museo Slab;font-size:10px;font-style:normal;font-weight:normal;text-anchor:middle;" transform="rotate(-0, 345.127273, 246.519375)" x="345.127273" y="246.519375">175</text>
     </g>
    </g>
    <g id="text_9">
     <text style="fill:#262626;font-family:Museo Slab;font-size:10px;font-style:normal;font-weight:normal;text-anchor:middle;" transform="rotate(-0, 201.4, 259.699063)" x="201.4" y="259.699063">Separation Event-Sum</text>
    </g>
   </g>
   <g id="matplotlib.axis_2">
    <g id="ytick_1">
     <g id="line2d_17">
      <path clip-path="url(#pb3aff0601c)" d="M 34 202.895606 
L 368.8 202.895606 
" style="fill:none;stroke:#cccccc;stroke-linecap:square;stroke-width:0.8;"/>
     </g>
     <g id="line2d_18">
      <defs>
       <path d="M 0 0 
L -3.5 0 
" id="mccb4c901a0" style="stroke:#262626;stroke-width:0.8;"/>
      </defs>
      <g>
       <use style="fill:#262626;stroke:#262626;stroke-width:0.8;" x="34" xlink:href="#mccb4c901a0" y="202.895606"/>
      </g>
     </g>
     <g id="text_10">
      <!-- $\mathdefault{10^{-3}}$ -->
      <g style="fill:#262626;" transform="translate(7.3 206.425294)">
       <text>
        <tspan style="font-family:Museo Slab;font-size:10px;font-style:500;font-weight:500;" x="0 4.789993" y="-0.140625">10</tspan>
        <tspan style="font-family:Museo Slab;font-size:7px;font-style:500;font-weight:500;" x="11.083217 15.37421" y="-3.8703125">3</tspan>
       </text>
      </g>
     </g>
    </g>
    <g id="ytick_2">
     <g id="line2d_19">
      <path clip-path="url(#pb3aff0601c)" d="M 34 126.828962 
L 368.8 126.828962 
" style="fill:none;stroke:#cccccc;stroke-linecap:square;stroke-width:0.8;"/>
     </g>
     <g id="line2d_20">
      <g>
       <use style="fill:#262626;stroke:#262626;stroke-width:0.8;" x="34" xlink:href="#mccb4c901a0" y="126.828962"/>
      </g>
     </g>
     <g id="text_11">
      <!-- $\mathdefault{10^{-2}}$ -->
      <g style="fill:#262626;" transform="translate(7.2 130.358649)">
       <text>
        <tspan style="font-family:Museo Slab;font-size:10px;font-style:500;font-weight:500;" x="0 4.789993" y="-0.05312500000000142">10</tspan>
        <tspan style="font-family:Museo Slab;font-size:7px;font-style:500;font-weight:500;" x="11.083217 15.37421" y="-3.7828125000000012">2</tspan>
       </text>
      </g>
     </g>
    </g>
    <g id="ytick_3">
     <g id="line2d_21">
      <path clip-path="url(#pb3aff0601c)" d="M 34 50.762318 
L 368.8 50.762318 
" style="fill:none;stroke:#cccccc;stroke-linecap:square;stroke-width:0.8;"/>
     </g>
     <g id="line2d_22">
      <g>
       <use style="fill:#262626;stroke:#262626;stroke-width:0.8;" x="34" xlink:href="#mccb4c901a0" y="50.762318"/>
      </g>
     </g>
     <g id="text_12">
      <!-- $\mathdefault{10^{-1}}$ -->
      <g style="fill:#262626;" transform="translate(8 54.292005)">
       <text>
        <tspan style="font-family:Museo Slab;font-size:10px;font-style:500;font-weight:500;" x="0 4.789993" y="-0.140625">10</tspan>
        <tspan style="font-family:Museo Slab;font-size:7px;font-style:500;font-weight:500;" x="11.083217 15.37421" y="-3.8703125">1</tspan>
       </text>
      </g>
     </g>
    </g>
    <g id="ytick_4">
     <g id="line2d_23">
      <defs>
       <path d="M 0 0 
L -2 0 
" id="m78e54fb5c2" style="stroke:#262626;stroke-width:0.6;"/>
      </defs>
      <g>
       <use style="fill:#262626;stroke:#262626;stroke-width:0.6;" x="34" xlink:href="#m78e54fb5c2" y="225.793948"/>
      </g>
     </g>
    </g>
    <g id="ytick_5">
     <g id="line2d_24">
      <g>
       <use style="fill:#262626;stroke:#262626;stroke-width:0.6;" x="34" xlink:href="#m78e54fb5c2" y="219.770896"/>
      </g>
     </g>
    </g>
    <g id="ytick_6">
     <g id="line2d_25">
      <g>
       <use style="fill:#262626;stroke:#262626;stroke-width:0.6;" x="34" xlink:href="#m78e54fb5c2" y="214.678479"/>
      </g>
     </g>
    </g>
    <g id="ytick_7">
     <g id="line2d_26">
      <g>
       <use style="fill:#262626;stroke:#262626;stroke-width:0.6;" x="34" xlink:href="#m78e54fb5c2" y="210.267226"/>
      </g>
     </g>
    </g>
    <g id="ytick_8">
     <g id="line2d_27">
      <g>
       <use style="fill:#262626;stroke:#262626;stroke-width:0.6;" x="34" xlink:href="#m78e54fb5c2" y="206.376225"/>
      </g>
     </g>
    </g>
    <g id="ytick_9">
     <g id="line2d_28">
      <g>
       <use style="fill:#262626;stroke:#262626;stroke-width:0.6;" x="34" xlink:href="#m78e54fb5c2" y="179.997265"/>
      </g>
     </g>
    </g>
    <g id="ytick_10">
     <g id="line2d_29">
      <g>
       <use style="fill:#262626;stroke:#262626;stroke-width:0.6;" x="34" xlink:href="#m78e54fb5c2" y="166.602594"/>
      </g>
     </g>
    </g>
    <g id="ytick_11">
     <g id="line2d_30">
      <g>
       <use style="fill:#262626;stroke:#262626;stroke-width:0.6;" x="34" xlink:href="#m78e54fb5c2" y="157.098923"/>
      </g>
     </g>
    </g>
    <g id="ytick_12">
     <g id="line2d_31">
      <g>
       <use style="fill:#262626;stroke:#262626;stroke-width:0.6;" x="34" xlink:href="#m78e54fb5c2" y="149.727304"/>
      </g>
     </g>
    </g>
    <g id="ytick_13">
     <g id="line2d_32">
      <g>
       <use style="fill:#262626;stroke:#262626;stroke-width:0.6;" x="34" xlink:href="#m78e54fb5c2" y="143.704252"/>
      </g>
     </g>
    </g>
    <g id="ytick_14">
     <g id="line2d_33">
      <g>
       <use style="fill:#262626;stroke:#262626;stroke-width:0.6;" x="34" xlink:href="#m78e54fb5c2" y="138.611834"/>
      </g>
     </g>
    </g>
    <g id="ytick_15">
     <g id="line2d_34">
      <g>
       <use style="fill:#262626;stroke:#262626;stroke-width:0.6;" x="34" xlink:href="#m78e54fb5c2" y="134.200581"/>
      </g>
     </g>
    </g>
    <g id="ytick_16">
     <g id="line2d_35">
      <g>
       <use style="fill:#262626;stroke:#262626;stroke-width:0.6;" x="34" xlink:href="#m78e54fb5c2" y="130.309581"/>
      </g>
     </g>
    </g>
    <g id="ytick_17">
     <g id="line2d_36">
      <g>
       <use style="fill:#262626;stroke:#262626;stroke-width:0.6;" x="34" xlink:href="#m78e54fb5c2" y="103.93062"/>
      </g>
     </g>
    </g>
    <g id="ytick_18">
     <g id="line2d_37">
      <g>
       <use style="fill:#262626;stroke:#262626;stroke-width:0.6;" x="34" xlink:href="#m78e54fb5c2" y="90.535949"/>
      </g>
     </g>
    </g>
    <g id="ytick_19">
     <g id="line2d_38">
      <g>
       <use style="fill:#262626;stroke:#262626;stroke-width:0.6;" x="34" xlink:href="#m78e54fb5c2" y="81.032279"/>
      </g>
     </g>
    </g>
    <g id="ytick_20">
     <g id="line2d_39">
      <g>
       <use style="fill:#262626;stroke:#262626;stroke-width:0.6;" x="34" xlink:href="#m78e54fb5c2" y="73.660659"/>
      </g>
     </g>
    </g>
    <g id="ytick_21">
     <g id="line2d_40">
      <g>
       <use style="fill:#262626;stroke:#262626;stroke-width:0.6;" x="34" xlink:href="#m78e54fb5c2" y="67.637608"/>
      </g>
     </g>
    </g>
    <g id="ytick_22">
     <g id="line2d_41">
      <g>
       <use style="fill:#262626;stroke:#262626;stroke-width:0.6;" x="34" xlink:href="#m78e54fb5c2" y="62.54519"/>
      </g>
     </g>
    </g>
    <g id="ytick_23">
     <g id="line2d_42">
      <g>
       <use style="fill:#262626;stroke:#262626;stroke-width:0.6;" x="34" xlink:href="#m78e54fb5c2" y="58.133937"/>
      </g>
     </g>
    </g>
    <g id="ytick_24">
     <g id="line2d_43">
      <g>
       <use style="fill:#262626;stroke:#262626;stroke-width:0.6;" x="34" xlink:href="#m78e54fb5c2" y="54.242936"/>
      </g>
     </g>
    </g>
    <g id="ytick_25">
     <g id="line2d_44">
      <g>
       <use style="fill:#262626;stroke:#262626;stroke-width:0.6;" x="34" xlink:href="#m78e54fb5c2" y="27.863976"/>
      </g>
     </g>
    </g>
    <g id="ytick_26">
     <g id="line2d_45">
      <g>
       <use style="fill:#262626;stroke:#262626;stroke-width:0.6;" x="34" xlink:href="#m78e54fb5c2" y="14.469305"/>
      </g>
     </g>
    </g>
   </g>
   <g id="patch_201">
    <path d="M 34 232.46 
L 34 10.7 
" style="fill:none;stroke:#cccccc;stroke-linecap:square;stroke-linejoin:miter;stroke-width:2;"/>
   </g>
   <g id="patch_202">
    <path d="M 34 232.46 
L 368.8 232.46 
" style="fill:none;stroke:#cccccc;stroke-linecap:square;stroke-linejoin:miter;stroke-width:2;"/>
   </g>
   <g id="legend_1">
    <g id="patch_203">
     <path d="M 269.470312 47.139062 
L 361.8 47.139062 
Q 363.8 47.139062 363.8 45.139062 
L 363.8 17.7 
Q 363.8 15.7 361.8 15.7 
L 269.470312 15.7 
Q 267.470312 15.7 267.470312 17.7 
L 267.470312 45.139062 
Q 267.470312 47.139062 269.470312 47.139062 
z
" style="fill:#ffffff;opacity:0.8;stroke:#cccccc;stroke-linejoin:miter;"/>
    </g>
    <g id="patch_204">
     <path d="M 271.470312 26.879687 
L 291.470312 26.879687 
L 291.470312 19.879687 
L 271.470312 19.879687 
z
" style="fill:#008fd5;opacity:0.6;"/>
    </g>
    <g id="text_13">
     <text style="fill:#262626;font-family:Museo Slab;font-size:10px;font-style:normal;font-weight:normal;text-anchor:start;" transform="rotate(-0, 299.470312, 26.879687)" x="299.470312" y="26.879687">Signal</text>
    </g>
    <g id="patch_205">
     <path d="M 271.470312 41.039062 
L 291.470312 41.039062 
L 291.470312 34.039062 
L 271.470312 34.039062 
z
" style="fill:#fc4f30;opacity:0.6;"/>
    </g>
    <g id="text_14">
     <text style="fill:#262626;font-family:Museo Slab;font-size:10px;font-style:normal;font-weight:normal;text-anchor:start;" transform="rotate(-0, 299.470312, 41.039062)" x="299.470312" y="41.039062">Background</text>
    </g>
   </g>
  </g>
 </g>
 <defs>
  <clipPath id="pb3aff0601c">
   <rect height="221.76" width="334.8" x="34" y="10.7"/>
  </clipPath>
 </defs>
</svg>
